# xmcd
#
# Track frame offsets:
#	150
#	22678
#	35483
#	60693
#	75125
#	91370
#	106068
#	119598
#	133535
#	144863
#	158518
#	169483
#	183375
#	196833
#	212205
#	225038
#	242860
#	253258
#	264705
#	290470
#
# Disc length: 4210 seconds
#
# Revision: 1
# Processed by: cddbd v1.4PL0 Copyright (c) Steve Scherf et al.
# Submitted via: audiograbber 1.80
#
DISCID=08107014
DTITLE=Canned Heat - The very best album ever
DYEAR=1900
DGENRE=
TTITLE0=On the road again
TTITLE1=Going up the country
TTITLE2=It's allright [featuring John Lee Hooker]
TTITLE3=Let's work together
TTITLE4=Time Was
TTITLE5=RockingWith The King [featuring Little Richard]
TTITLE6=Evil Woman
TTITLE7=Rollin' And Tumblin'
TTITLE8=Wooly Booly
TTITLE9=Hill's Stomp
TTITLE10=Rock 'n Roll Music
TTITLE11=Long Way From L.A.
TTITLE12=Future Blues
TTITLE13=Poor Moon
TTITLE14=Low Down (And High Up)
TTITLE15=Amphetamine Annie
TTITLE16=Bullfrog Blues
TTITLE17=Harley Davidson Blues
TTITLE18=Bring It On Home (Live Bonus Track)
TTITLE19=Back Out On The Road/ On the Road Again (Live Bonus Track)
EXTD=
EXTT0=
EXTT1=
EXTT2=
EXTT3=
EXTT4=
EXTT5=
EXTT6=
EXTT7=
EXTT8=
EXTT9=
EXTT10=
EXTT11=
EXTT12=
EXTT13=
EXTT14=
EXTT15=
EXTT16=
EXTT17=
EXTT18=
EXTT19=
PLAYORDER=
